<?xml version="1.0" encoding="utf-8"?>
<!-- Generator: Adobe Illustrator 22.1.0, SVG Export Plug-In . SVG Version: 6.00 Build 0)  -->
<svg version="1.1" id="logo-light" xmlns="http://www.w3.org/2000/svg" xmlns:xlink="http://www.w3.org/1999/xlink" x="0px" y="0px"
	 viewBox="0 0 293.1 52.8" style="enable-background:new 0 0 293.1 52.8;" xml:space="preserve">
<style type="text/css">
	.st0{fill:#FFFFFF;stroke:#FFFFFF;stroke-miterlimit:10;}
</style>
<g>
	<path class="st0" d="M2.1,50.2c-1.1-1.1-1.6-2.5-1.6-4.3V6.8c0-1.8,0.6-3.3,1.9-4.3S5.2,1,7,1h23c1.2,0,2.2,0.4,2.9,1.2
		C33.7,3,34,4,34,5.2c0,1.1-0.4,2.1-1.1,2.9C32.1,9,31.2,9.5,30,9.5H11.8v12.2H29c1.2,0,2.1,0.4,2.9,1.2c0.8,0.8,1.1,1.8,1.1,3
		s-0.4,2.1-1.1,2.9C31.1,29.6,30.2,30,29,30H11.8v16c0,1.7-0.6,3.1-1.7,4.3S7.6,52,6.1,52S3.2,51.3,2.1,50.2z"/>
	<path class="st0" d="M47.5,50.8c-2.4-1-4.4-2.3-5.9-4s-2.6-3.6-3.4-5.7S37,36.7,37,34.2c0-2.4,0.4-4.7,1.1-6.9
		c0.8-2.2,1.9-4.1,3.4-5.8s3.5-3,5.9-4s5.2-1.5,8.3-1.5c3,0,5.8,0.5,8.2,1.4c2.4,0.9,4.4,2.3,5.9,3.9c1.5,1.7,2.7,3.6,3.5,5.8
		s1.2,4.5,1.2,7.1c0,2.4-0.4,4.7-1.2,6.8s-1.9,4-3.4,5.7s-3.5,3-5.9,4s-5.2,1.5-8.3,1.5C52.7,52.3,50,51.8,47.5,50.8z M62.4,42.8
		c1.5-2.1,2.3-4.9,2.3-8.6c0-3.8-0.8-6.7-2.3-8.7c-1.5-2.1-3.7-3.1-6.6-3.1c-2.9,0-5.1,1-6.6,3.1s-2.3,5-2.3,8.7
		c0,3.6,0.8,6.5,2.3,8.5s3.7,3.1,6.6,3.1C58.7,45.9,60.9,44.8,62.4,42.8z"/>
	<path class="st0" d="M102.2,49.3l-7.8-9l-8.1,9.6c-1.1,1.4-2.4,2.1-3.8,2.1c-1.1,0-2-0.4-2.8-1.2s-1.2-1.7-1.2-2.8
		c0-1.2,0.4-2.2,1.2-3.2L88.9,34l-8.2-9.4c-0.5-0.6-1-1.3-1.2-1.9c-0.3-0.7-0.4-1.3-0.4-1.9c0-1.2,0.5-2.2,1.4-3s2.1-1.2,3.3-1.2
		s2.7,0.9,4.2,2.8l7.1,8.2l8.2-9.6c1-1.2,2.2-1.8,3.6-1.8c1.1,0,2,0.4,2.8,1.1c0.8,0.7,1.1,1.6,1.1,2.7c0,1-0.4,2.1-1.3,3.2
		l-8.9,10.6l9,10.4c1.1,1.3,1.6,2.6,1.6,3.8c0,1.1-0.5,2-1.4,2.9s-1.9,1.3-3.1,1.3C105.3,52.1,103.8,51.2,102.2,49.3z"/>
	<path class="st0" d="M120.1,47.4c-3.4-3.2-5.1-7.7-5.1-13.5c0-3.3,0.7-6.3,2.1-9s3.5-4.9,6.2-6.5s5.9-2.4,9.5-2.4
		c2.8,0,5.2,0.5,7.4,1.4s3.8,2.2,5.1,3.8s2.2,3.4,2.9,5.4s1,4.2,1,6.5c0,0.9-0.3,1.7-0.8,2.2s-1.2,0.8-2.2,0.8h-21.4
		c0.3,6.3,3.6,9.5,9.7,9.5c3,0,6.1-1.2,9.1-3.5c0.4-0.4,0.9-0.5,1.4-0.5c0.4,0,0.8,0.1,1.2,0.3s0.7,0.5,1,0.8s0.5,0.7,0.7,1.1
		s0.3,0.9,0.3,1.3c0,0.1,0,0.2,0,0.3s0,0.2,0,0.3s0,0.2-0.1,0.3s-0.1,0.2-0.1,0.3s-0.1,0.2-0.1,0.3s-0.1,0.2-0.2,0.3
		s-0.1,0.2-0.2,0.3s-0.2,0.2-0.3,0.2c-3.7,3.3-8.2,4.9-13.6,4.9C128,52.3,123.5,50.6,120.1,47.4z M140.9,31.1c-0.4-6-3-9-7.9-9
		c-2.5,0-4.4,0.9-5.8,2.6c-1.4,1.7-2.2,3.9-2.4,6.4H140.9z"/>
	<path class="st0" d="M164.9,42c1.6,2,3.8,3,6.7,3c2.6,0,4.9-0.6,6.9-1.8c0.6-0.4,1.2-0.5,1.8-0.5c0.3,0,0.6,0,0.8,0.1
		s0.5,0.2,0.7,0.4s0.4,0.3,0.6,0.5s0.3,0.4,0.5,0.7s0.2,0.5,0.3,0.8s0.1,0.6,0.1,0.9c0,1.2-0.5,2.3-1.5,3.1
		c-1.1,0.9-2.6,1.6-4.6,2.2s-4.2,0.9-6.7,0.9c-5.1,0-9.4-1.7-12.8-5s-5.1-7.7-5.1-13.2c0-3.4,0.8-6.4,2.3-9.2s3.7-4.9,6.5-6.5
		s5.9-2.4,9.4-2.4c2.2,0,4.3,0.3,6.1,0.9s3.3,1.3,4.4,2.1c0.6,0.4,1,0.9,1.2,1.4s0.4,1.1,0.4,1.6c0,0.9-0.3,1.6-0.9,2.3
		s-1.3,1-2.2,1c-0.1,0-0.2,0-0.3,0s-0.2,0-0.3,0s-0.2,0-0.3-0.1s-0.2-0.1-0.3-0.1s-0.2-0.1-0.3-0.1s-0.2-0.1-0.3-0.1
		c-2.1-1.1-4.1-1.6-6.1-1.6c-1.4,0-2.7,0.2-3.9,0.7s-2.1,1.2-3,2.1s-1.4,2.1-1.9,3.4s-0.7,2.9-0.7,4.6
		C162.6,37.3,163.4,39.9,164.9,42z"/>
	<path class="st0" d="M196.7,50.8c-2.4-1-4.4-2.3-5.9-4s-2.6-3.6-3.4-5.7s-1.2-4.4-1.2-6.9c0-2.4,0.4-4.7,1.1-6.9s1.9-4.1,3.4-5.8
		s3.5-3,5.9-4s5.2-1.5,8.3-1.5c3,0,5.8,0.5,8.2,1.4s4.4,2.3,5.9,3.9s2.7,3.6,3.5,5.8s1.2,4.5,1.2,7.1c0,2.4-0.4,4.7-1.2,6.8
		s-1.9,4-3.4,5.7s-3.5,3-5.9,4s-5.2,1.5-8.3,1.5C201.9,52.3,199.1,51.8,196.7,50.8z M211.6,42.8c1.5-2.1,2.3-4.9,2.3-8.6
		c0-3.8-0.8-6.7-2.3-8.7s-3.7-3.1-6.6-3.1s-5.1,1-6.6,3.1s-2.3,5-2.3,8.7c0,3.6,0.8,6.5,2.3,8.5s3.7,3.1,6.6,3.1
		S210,44.8,211.6,42.8z"/>
	<path class="st0" d="M230.5,50.4c-0.8-1-1.2-2.4-1.2-4.3V21.6c0-1.6,0.4-2.9,1.3-3.7s2.1-1.3,3.7-1.3c1.5,0,2.7,0.4,3.5,1.3
		s1.2,2.1,1.2,3.7v0.8c2.1-4.2,6.1-6.4,11.9-6.4c3.5,0,6.5,1.2,8.8,3.5s3.5,5.7,3.5,10v16.6c0,1.9-0.4,3.3-1.3,4.3s-2.1,1.5-3.7,1.5
		c-1.5,0-2.7-0.5-3.5-1.5s-1.2-2.4-1.2-4.3V29.6c0-2.3-0.6-4.1-1.8-5.3s-2.7-1.8-4.5-1.8c-2.2,0-4.1,0.9-5.7,2.6s-2.4,4-2.4,6.7
		v14.4c0,1.9-0.4,3.3-1.3,4.3s-2.1,1.5-3.7,1.5C232.5,51.9,231.3,51.4,230.5,50.4z"/>
	<path class="st0" d="M274.2,50.4c-0.9-1-1.3-2.4-1.3-4.3V22.7h-3c-2.3,0-3.5-1.1-3.5-3c0-0.6,0.1-1.1,0.3-1.5s0.5-0.8,1-1.1
		s1.1-0.4,1.9-0.4h0.1h3.2v-3c0-4.6,1.1-7.9,3.2-10s5.2-3.2,9.4-3.2h4.1c0.9,0,1.7,0.4,2.2,1.1s0.8,1.6,0.8,2.6s-0.3,1.8-0.8,2.5
		s-1.3,1-2.3,1h-2.6c-1.7,0-2.9,0.4-3.5,1.3s-0.9,2.8-0.9,5.7v1.9h4.4c1,0,1.8,0.3,2.4,0.8s0.9,1.3,0.9,2.2c0,2-1.2,3-3.5,3h-4.2V46
		c0,1.9-0.4,3.3-1.3,4.3s-2.1,1.5-3.6,1.5C276.2,51.9,275,51.4,274.2,50.4z"/>
</g>
</svg>
