<svg xmlns="http://www.w3.org/2000/svg" height="512pt" viewBox="-23 0 512 512" width="512pt"><path d="M349 222v-97c0-3-1-6-3-8L237 3c-2-2-5-3-8-3H57C25 0 0 26 0 58v325c0 32 25 58 57 58h136a147 147 0 10156-219zM240 37l73 77h-47c-14 0-26-11-26-26zM57 419c-20 0-36-16-36-36V58c0-20 16-37 36-37h162v67c0 26 21 48 47 48h62v83l-9-1c-37 0-71 15-97 37H86c-6 0-10 5-10 11s4 10 10 10h116c-8 11-14 22-19 34H86c-6 0-10 4-10 10s4 11 10 11h90a144 144 0 007 88H57zm262 72a126 126 0 110-251 126 126 0 010 251zm0 0"/><path d="M86 223h108c6 0 11-5 11-11s-5-10-11-10H86c-6 0-10 4-10 10s4 11 10 11zm0 0M327 287c-2-3-5-4-8-4s-6 1-8 4l-63 67c-4 4-3 11 1 15s11 4 15-1l44-47v117c0 5 5 10 11 10s11-5 11-10V321l44 47c2 3 5 4 7 4 3 0 6-1 8-3 4-4 4-11 0-15zm0 0"/></svg>